<mxfile host="app.diagrams.net" agent="Mozilla/5.0 (Macintosh; Intel Mac OS X 10.15; rv:132.0) Gecko/20100101 Firefox/132.0" version="25.0.3">
  <diagram name="Page-1" id="5snCd6SUFVH3jq0-RAvZ">
    <mxGraphModel>
      <root>
        <mxCell id="0" />
        <mxCell id="1" parent="0" />
        <mxCell id="2" value="Internet" style="whiteSpace=wrap;strokeWidth=2;" vertex="1" parent="1">
          <mxGeometry x="153" y="8" width="120" height="50" as="geometry" />
        </mxCell>
        <mxCell id="3" value="Router 1" style="whiteSpace=wrap;strokeWidth=2;" vertex="1" parent="1">
          <mxGeometry x="152" y="108" width="123" height="50" as="geometry" />
        </mxCell>
        <mxCell id="4" value="Switch 1" style="whiteSpace=wrap;strokeWidth=2;" vertex="1" parent="1">
          <mxGeometry x="65" y="207" width="122" height="50" as="geometry" />
        </mxCell>
        <mxCell id="5" value="PC 1" style="whiteSpace=wrap;strokeWidth=2;" vertex="1" parent="1">
          <mxGeometry x="8" y="307" width="94" height="50" as="geometry" />
        </mxCell>
        <mxCell id="6" value="PC 2" style="whiteSpace=wrap;strokeWidth=2;" vertex="1" parent="1">
          <mxGeometry x="152" y="307" width="94" height="50" as="geometry" />
        </mxCell>
        <mxCell id="7" value="Router 2" style="whiteSpace=wrap;strokeWidth=2;" vertex="1" parent="1">
          <mxGeometry x="303" y="207" width="123" height="50" as="geometry" />
        </mxCell>
        <mxCell id="8" value="Switch 2" style="whiteSpace=wrap;strokeWidth=2;" vertex="1" parent="1">
          <mxGeometry x="303" y="307" width="122" height="50" as="geometry" />
        </mxCell>
        <mxCell id="9" value="Printer" style="whiteSpace=wrap;strokeWidth=2;" vertex="1" parent="1">
          <mxGeometry x="229" y="406" width="111" height="50" as="geometry" />
        </mxCell>
        <mxCell id="10" value="Server" style="whiteSpace=wrap;strokeWidth=2;" vertex="1" parent="1">
          <mxGeometry x="390" y="406" width="107" height="50" as="geometry" />
        </mxCell>
        <mxCell id="11" value="" style="curved=1;startArrow=none;endArrow=block;exitX=0.5;exitY=0.99;entryX=0.5;entryY=-0.01;" edge="1" parent="1" source="2" target="3">
          <mxGeometry relative="1" as="geometry">
            <Array as="points" />
          </mxGeometry>
        </mxCell>
        <mxCell id="12" value="" style="curved=1;startArrow=none;endArrow=block;exitX=0.15;exitY=0.98;entryX=0.51;entryY=0;" edge="1" parent="1" source="3" target="4">
          <mxGeometry relative="1" as="geometry">
            <Array as="points">
              <mxPoint x="127" y="182" />
            </Array>
          </mxGeometry>
        </mxCell>
        <mxCell id="13" value="" style="curved=1;startArrow=none;endArrow=block;exitX=0.21;exitY=0.99;entryX=0.5;entryY=-0.01;" edge="1" parent="1" source="4" target="5">
          <mxGeometry relative="1" as="geometry">
            <Array as="points">
              <mxPoint x="55" y="282" />
            </Array>
          </mxGeometry>
        </mxCell>
        <mxCell id="14" value="" style="curved=1;startArrow=none;endArrow=block;exitX=0.8;exitY=0.99;entryX=0.49;entryY=-0.01;" edge="1" parent="1" source="4" target="6">
          <mxGeometry relative="1" as="geometry">
            <Array as="points">
              <mxPoint x="199" y="282" />
            </Array>
          </mxGeometry>
        </mxCell>
        <mxCell id="15" value="" style="curved=1;startArrow=none;endArrow=block;exitX=0.99;exitY=0.89;entryX=0.49;entryY=0;" edge="1" parent="1" source="3" target="7">
          <mxGeometry relative="1" as="geometry">
            <Array as="points">
              <mxPoint x="364" y="182" />
            </Array>
          </mxGeometry>
        </mxCell>
        <mxCell id="16" value="" style="curved=1;startArrow=none;endArrow=block;exitX=0.49;exitY=0.99;entryX=0.5;entryY=-0.01;" edge="1" parent="1" source="7" target="8">
          <mxGeometry relative="1" as="geometry">
            <Array as="points" />
          </mxGeometry>
        </mxCell>
        <mxCell id="17" value="" style="curved=1;startArrow=none;endArrow=block;exitX=0.17;exitY=0.98;entryX=0.5;entryY=0;" edge="1" parent="1" source="8" target="9">
          <mxGeometry relative="1" as="geometry">
            <Array as="points">
              <mxPoint x="284" y="381" />
            </Array>
          </mxGeometry>
        </mxCell>
        <mxCell id="18" value="" style="curved=1;startArrow=none;endArrow=block;exitX=0.82;exitY=0.98;entryX=0.5;entryY=0;" edge="1" parent="1" source="8" target="10">
          <mxGeometry relative="1" as="geometry">
            <Array as="points">
              <mxPoint x="443" y="381" />
            </Array>
          </mxGeometry>
        </mxCell>
      </root>
    </mxGraphModel>
  </diagram>
</mxfile>
